<?xml version="1.0" encoding="utf-8"?>
<!DOCTYPE svg PUBLIC "-//W3C//DTD SVG 1.1//EN" "http://www.w3.org/Graphics/SVG/1.1/DTD/svg11.dtd">
<svg version="1.1" baseProfile="full"
 xmlns="http://www.w3.org/2000/svg"
 xmlns:xlink="http://www.w3.org/1999/xlink"
 xmlns:ev="http://www.w3.org/2001/xml-events" 
  height="183px" 
  width="238px" 
>
<path fill-opacity="0" opacity="1" stroke="rgb( 255, 255, 255 )" stroke-width="2" stroke-opacity="0.3" fill="rgb( 255, 255, 255 )"
 d="M232.411,177.317 C227.406,182.087 219.472,181.908 214.703,176.911 C214.703,176.911 185.536,147.744 185.536,147.744 C185.447,147.655 185.357,147.565 185.276,147.483 C177.015,152.594 167.283,155.557 156.89,155.557 C127.073,155.557 102.723,131.208 102.723,101.39 C102.723,71.573 127.073,47.223 156.89,47.223 C186.707,47.223 211.057,71.573 211.057,101.39 C211.057,111.783 208.094,121.508 202.984,129.775 C203.065,129.857 203.155,129.947 203.244,130.036 C203.244,130.036 232.411,159.203 232.411,159.203 C232.541,159.332 232.679,159.463 232.818,159.609 C237.587,164.606 237.408,172.533 232.411,177.317 ZM156.89,63.89 C136.081,63.89 119.39,80.581 119.39,101.39 C119.39,122.199 136.081,138.89 156.89,138.89 C177.699,138.89 194.39,122.199 194.39,101.39 C194.39,80.581 177.699,63.89 156.89,63.89 ZM83.579,51.9829999999999 C69.1700000000001,52.061 57.7139999999999,40.974 57.3879999999999,26.6369999999999 C57.0619999999999,12.193 69.183,0.04100000000005 83.7280000000001,0.23000000000002 C98.0329999999999,0.41499999999996 109.237,11.869 109.192,26.264 C109.15,40.787 98.079,51.904 83.579,51.9829999999999 ZM34.306,70.431 C24.327,70.822 16.26,63.141 16.171,53.164 C16.083,43.252 24.152,35.13 33.893,35.322 C43.252,35.505 50.8620000000001,43.276 50.971,52.7569999999999 C51.0809999999999,62.384 43.847,70.055 34.306,70.431 ZM39.72,79.026 C38.897,84.252 37.104,89.2859999999999 36.313,94.299 C35.511,99.386 35.713,104.451 34.889,109.674 C25.693,109.674 16.207,109.674 6.80600000000004,109.674 C0.91999999999996,93.126 22.2619999999999,71.425 39.72,79.026 ZM101.978,64.0359999999999 C103.455,64.8200000000001 104.82,65.6660000000001 106.132,66.539 C99.1379999999999,75.005 94.9280000000001,85.8579999999999 94.9280000000001,97.675 C94.9280000000001,101.848 95.4570000000001,105.898 96.443,109.772 C78.835,109.772 61.47,109.772 44.1410000000001,109.772 C39.905,95.278 45.539,77.957 58.145,68.254 C71.7570000000001,57.774 86.7560000000001,55.957 101.978,64.0359999999999 Z "/>
</svg>
