<?xml version="1.0" encoding="utf-8"?>
<!DOCTYPE svg PUBLIC "-//W3C//DTD SVG 1.1//EN" "http://www.w3.org/Graphics/SVG/1.1/DTD/svg11.dtd">
<svg version="1.1" baseProfile="full"
 xmlns="http://www.w3.org/2000/svg"
 xmlns:xlink="http://www.w3.org/1999/xlink"
 xmlns:ev="http://www.w3.org/2001/xml-events" 
  height="252px" 
  width="301px" 
>
<path fill-opacity="0" opacity="1" stroke="rgb( 255, 255, 255 )" stroke-width="2" stroke-opacity="0.3" fill="rgb( 255, 255, 255 )"
 d="M226.504,85.996 C208.202,85.996 193.366,71.159 193.366,52.857 C193.366,34.554 208.202,19.719 226.504,19.719 C244.806,19.719 259.642,34.554 259.642,52.857 C259.642,71.159 244.806,85.996 226.504,85.996 ZM186.791,147.179 C186.791,147.179 186.791,220.79 186.791,220.79 C186.791,224.819 183.514,228.068 179.512,228.068 C179.512,228.068 164.096,228.068 164.096,228.068 C159.566,228.068 155.318,224.539 155.318,221.707 C155.318,221.707 155.318,213.374 155.318,213.374 C155.318,212.289 154.957,211.263 154.374,210.428 C153.457,209.123 151.927,208.29 150.207,208.29 C148.485,208.29 146.985,209.123 146.068,210.428 C145.484,211.266 145.124,212.294 145.124,213.377 C145.124,213.377 145.124,221.71 145.124,221.71 C145.124,224.545 143.401,228.071 139.039,228.071 C139.039,228.071 118.401,228.071 118.401,228.071 C114.373,228.071 111.096,224.821 111.096,220.793 C111.096,220.793 111.096,147.179 111.096,147.179 C111.096,143.68 80.123,127.374 110.373,94.68 C114.039,90.68 118.651,86.457 124.318,81.957 C125.651,80.929 124.151,80.263 127.068,81.957 C130.568,84.0119999999999 136.484,86.402 145.484,86.985 C146.789,87.068 148.178,87.123 149.624,87.123 C151.04,87.123 152.345,87.068 153.596,86.985 C153.596,86.985 153.788,86.985 153.788,86.985 C162.68,86.402 168.374,84.04 171.708,81.986 C174.54,80.29 173.064,80.929 174.453,81.986 C180.204,86.373 184.87,90.513 188.649,94.429 C220.178,127.29 186.791,143.68 186.791,147.179 ZM148.973,78.776 C127.304,78.776 109.737,61.2089999999999 109.737,39.54 C109.737,17.871 127.304,0.30399999999997 148.973,0.30399999999997 C170.645,0.30399999999997 188.209,17.871 188.209,39.54 C188.209,61.2089999999999 170.645,78.776 148.973,78.776 ZM71.335,85.996 C53.033,85.996 38.196,71.159 38.196,52.857 C38.196,34.554 53.033,19.719 71.335,19.719 C89.636,19.719 104.473,34.554 104.473,52.857 C104.473,71.159 89.636,85.996 71.335,85.996 ZM49.318,86.0119999999999 C49.318,86.0119999999999 55.374,93.04 71.873,93.04 C88.4290000000001,93.04 93.9000000000001,86.0119999999999 93.9000000000001,86.0119999999999 C96.2059999999999,87.651 98.318,89.2619999999999 100.262,90.818 C63.845,126.096 97.2339999999999,143.539 97.2339999999999,147.179 C97.2339999999999,147.179 97.2339999999999,212.096 97.2339999999999,212.096 C97.2339999999999,212.096 84.124,212.096 84.124,212.096 C80.289,212.096 76.7080000000001,209.096 76.7080000000001,206.706 C76.7080000000001,206.706 76.7080000000001,199.68 76.7080000000001,199.68 C76.7080000000001,197.315 74.7629999999999,195.372 72.373,195.372 C70.0129999999999,195.372 68.096,197.315 68.096,199.68 C68.096,199.68 68.096,206.703 68.096,206.703 C68.096,209.093 66.623,212.093 62.957,212.093 C62.957,212.093 40.818,212.093 40.818,212.093 C37.429,212.093 34.651,209.343 34.651,205.955 C34.651,205.955 34.651,143.761 34.651,143.761 C34.651,140.373 0.04100000000005,122.651 49.318,86.0119999999999 ZM53.893,217.969 C59.965,217.969 64.89,222.892 64.89,228.966 C64.89,228.966 64.89,229.257 64.89,229.257 C64.89,231.749 59.965,232.045 53.893,232.045 C47.8150000000001,232.045 42.893,231.538 42.893,229.257 C42.893,229.257 42.893,228.966 42.893,228.966 C42.893,222.892 47.8150000000001,217.969 53.893,217.969 ZM89.9290000000001,217.958 C92.7339999999999,217.958 95.318,219.011 97.2339999999999,220.736 C97.4010000000001,220.874 97.568,221.037 97.7059999999999,221.176 C99.2619999999999,222.735 100.346,224.732 100.735,226.986 C100.873,227.624 100.929,228.291 100.929,228.956 C100.929,228.956 100.929,229.259 100.929,229.259 C100.929,231.76 96.0119999999999,232.037 89.9290000000001,232.037 C86.902,232.037 84.124,231.899 82.152,231.511 C80.1510000000001,231.096 78.9290000000001,230.401 78.9290000000001,229.259 C78.9290000000001,229.259 78.9290000000001,228.956 78.9290000000001,228.956 C78.9290000000001,222.898 83.846,217.958 89.9290000000001,217.958 ZM128.324,235.026 C135.516,235.026 141.345,240.859 141.345,248.047 C141.345,248.047 141.345,248.394 141.345,248.394 C141.345,251.346 135.516,251.696 128.324,251.696 C121.131,251.696 115.301,251.096 115.301,248.394 C115.301,248.394 115.301,248.047 115.301,248.047 C115.301,240.859 121.131,235.026 128.324,235.026 ZM170.992,235.026 C178.18,235.026 184.015,240.859 184.015,248.047 C184.015,248.047 184.015,248.394 184.015,248.394 C184.015,251.346 178.18,251.696 170.992,251.696 C163.798,251.696 157.971,251.096 157.971,248.394 C157.971,248.394 157.971,248.047 157.971,248.047 C157.971,240.859 163.801,235.026 170.992,235.026 ZM200.568,221.981 C200.568,221.981 200.568,221.981 200.568,221.954 C202.594,219.51 205.652,217.958 209.067,217.958 C212.094,217.958 214.845,219.176 216.847,221.176 C218.846,223.178 220.069,225.928 220.069,228.956 C220.069,228.956 220.069,229.259 220.069,229.259 C220.069,231.76 215.127,232.037 209.067,232.037 C206.013,232.037 203.289,231.899 201.29,231.511 C199.291,231.096 198.067,230.401 198.067,229.259 C198.067,229.259 198.067,228.956 198.067,228.956 C198.067,227.898 198.205,226.902 198.512,225.928 C198.9,224.482 199.624,223.15 200.568,221.981 ZM200.647,212.093 C200.647,212.093 200.647,147.179 200.647,147.179 C200.647,143.539 236.617,126.041 198.62,90.596 C200.424,89.124 202.372,87.568 204.483,86.0119999999999 C204.483,86.0119999999999 210.537,93.04 227.066,93.04 C243.594,93.04 249.065,86.0119999999999 249.065,86.0119999999999 C300.289,122.651 263.152,140.373 263.152,143.761 C263.152,143.761 263.152,205.958 263.152,205.958 C263.152,209.346 260.374,212.096 256.981,212.096 C256.981,212.096 239.286,212.096 239.286,212.096 C235.453,212.096 231.87,209.096 231.87,206.706 C231.87,206.706 231.87,199.68 231.87,199.68 C231.87,197.315 229.927,195.372 227.538,195.372 C225.175,195.372 223.26,197.315 223.26,199.68 C223.26,199.68 223.26,206.703 223.26,206.703 C223.26,209.093 221.787,212.093 218.122,212.093 C218.122,212.093 200.647,212.093 200.647,212.093 ZM245.102,217.969 C251.176,217.969 256.102,222.892 256.102,228.966 C256.102,228.966 256.102,229.257 256.102,229.257 C256.102,231.749 251.176,232.045 245.102,232.045 C239.026,232.045 234.099,231.538 234.099,229.257 C234.099,229.257 234.099,228.966 234.099,228.966 C234.099,222.892 239.026,217.969 245.102,217.969 Z "/>
</svg>
