<?xml version="1.0" encoding="utf-8"?>
<!DOCTYPE svg PUBLIC "-//W3C//DTD SVG 1.1//EN" "http://www.w3.org/Graphics/SVG/1.1/DTD/svg11.dtd">
<svg version="1.1" baseProfile="full"
 xmlns="http://www.w3.org/2000/svg"
 xmlns:xlink="http://www.w3.org/1999/xlink"
 xmlns:ev="http://www.w3.org/2001/xml-events" 
  height="398px" 
  width="212px" 
>
<path fill-opacity="0" opacity="1" stroke="rgb( 255, 255, 255 )" stroke-width="2" stroke-opacity="0.3" fill="rgb( 255, 255, 255 )"
 d="M57.91,240.425 C54.173,264.461 51.788,288.307 51.789,308.573 C27.288,329.621 0.34299999999996,351.759 2.78300000000002,345.091 C2.78300000000002,345.091 35.518,255.641 35.518,255.641 C39.033,246.034 48.225,240.182 57.91,240.425 ZM154.399,275.735 C141.741,296.507 128.173,316.26 115.091,331.738 C120.215,363.628 126.507,397.929 128.947,391.261 C128.947,391.261 161.682,301.811 161.682,301.811 C165.197,292.204 161.957,281.794 154.399,275.735 ZM207.115,149.952 C192.831,139.328 174.572,130.068 155.551,123.107 C136.525,116.144 116.605,111.437 98.8420000000001,110.329 C94.1369999999999,117.485 90.0599999999999,125.223 87.002,133.58 C77.646,159.147 67.592,200.478 61.341,240.779 C57.773,263.777 55.447,286.431 55.207,305.634 C55.1420000000001,310.957 55.227,316.027 55.497,320.749 C55.497,320.749 104.396,338.644 104.396,338.644 C107.658,335.214 110.996,331.397 114.376,327.287 C126.589,312.466 139.437,293.662 151.553,273.792 C172.796,238.973 191.793,200.915 201.148,175.351 C204.208,166.991 206.1,158.458 207.115,149.952 ZM161.726,189.99 C161.64,190.153 161.556,190.313 161.461,190.476 C160.727,191.748 159.921,192.956 159.029,194.079 C151.429,203.658 138.271,207.799 126.173,203.371 C114.083,198.947 106.704,187.299 107.073,175.081 C107.13,173.317 107.356,171.545 107.746,169.781 C107.814,169.459 107.86,169.138 107.942,168.817 C108.186,167.86 108.479,166.912 108.819,165.984 C114.342,150.892 131.116,143.102 146.208,148.625 C161.298,154.148 169.084,170.925 163.561,186.017 C163.055,187.411 162.427,188.726 161.726,189.99 ZM142.289,159.345 C152.018,162.905 158.808,170.683 160.887,179.293 C162.395,167.963 155.925,156.681 144.759,152.595 C133.596,148.51 121.37,152.95 115.218,162.576 C122.356,157.339 132.563,155.786 142.289,159.345 ZM57.465,341.644 C57.465,341.644 89.414,353.335 89.414,353.335 C93.1610000000001,350.603 97.1120000000001,347.114 101.194,343.001 C101.194,343.001 55.134,326.145 55.134,326.145 C55.609,331.926 56.367,337.138 57.465,341.644 ZM208.185,144.056 C211.896,101.546 194.36,60.6279999999999 187.708,46.874 C187.708,46.874 188.38,44.422 188.38,44.422 C188.38,44.422 189.05,41.962 189.05,41.962 C189.05,41.962 200.452,0.41100000000006 200.452,0.41100000000006 C200.452,0.41100000000006 182.342,39.5070000000001 182.342,39.5070000000001 C182.342,39.5070000000001 181.27,41.816 181.27,41.816 C181.27,41.816 180.204,44.123 180.204,44.123 C166.251,50.3320000000001 126.437,70.2670000000001 101.819,105.131 C118.111,106.416 136.89,110.747 157.336,118.229 C177.787,125.714 194.919,134.524 208.185,144.056 Z "/>
</svg>
